<svg xmlns="http://www.w3.org/2000/svg" xmlns:xlink="http://www.w3.org/1999/xlink" zoomAndPan="magnify" preserveAspectRatio="xMidYMid meet" version="1.0" viewBox="36.47 150.77 302.99 71.45"><defs><g/></defs><path stroke-linecap="round" transform="matrix(3.59375, 0, 0, 3.59375, 30.285393, 144.337023)" fill="none" stroke-linejoin="round" d="M 15.999936 6.999699 L 16.009718 6.999699 " stroke="#ffffff" stroke-width="2" stroke-opacity="1" stroke-miterlimit="4"/><path stroke-linecap="round" transform="matrix(3.59375, 0, 0, 3.59375, 30.285393, 144.337023)" fill="none" stroke-linejoin="round" d="M 3.399935 17.9997 L 11.999935 17.9997 C 12.261892 17.9997 12.523848 17.986656 12.783631 17.961656 C 13.044501 17.935569 13.304283 17.897526 13.560805 17.846439 C 13.817327 17.795352 14.071675 17.731221 14.322762 17.655134 C 14.572762 17.579047 14.819501 17.491004 15.061892 17.391004 C 15.303196 17.291004 15.540153 17.179047 15.771675 17.055134 C 16.00211 16.932308 16.22711 16.797526 16.444501 16.651873 C 16.661892 16.506221 16.872762 16.350786 17.074936 16.184482 C 17.278197 16.018178 17.471675 15.842091 17.656458 15.657308 C 17.842327 15.471439 18.017327 15.27796 18.183632 15.074699 C 18.349936 14.872525 18.506458 14.662743 18.65211 14.444265 C 18.797762 14.226873 18.931458 14.001873 19.055371 13.771438 C 19.179284 13.539917 19.29124 13.304047 19.39124 13.061656 C 19.49124 12.819264 19.579284 12.572525 19.655371 12.322525 C 19.731458 12.071438 19.795588 11.818177 19.846675 11.560569 C 19.897762 11.304047 19.935806 11.045351 19.961893 10.784482 C 19.986893 10.523612 19.999936 10.261656 19.999936 9.999699 L 19.999936 6.999699 C 20.001023 6.788829 19.984719 6.57796 19.95211 6.369264 C 19.918414 6.159481 19.869501 5.954046 19.804284 5.752959 C 19.739066 5.551872 19.657545 5.357307 19.561892 5.168177 C 19.465153 4.980133 19.354284 4.800785 19.229284 4.629046 C 19.104284 4.458394 18.967327 4.298612 18.817327 4.149698 C 18.66624 4.000785 18.505371 3.863829 18.333632 3.741003 C 18.161892 3.61709 17.981458 3.508394 17.79124 3.412742 C 17.60211 3.318177 17.406458 3.238829 17.205371 3.175785 C 17.003197 3.111655 16.797762 3.063829 16.587979 3.033394 C 16.379284 3.001872 16.168414 2.987742 15.956457 2.989916 C 15.744501 2.99209 15.534718 3.010568 15.326023 3.046437 C 15.117327 3.082307 14.912979 3.134481 14.712979 3.201872 C 14.511892 3.270351 14.318414 3.354046 14.131457 3.452959 C 13.944501 3.551872 13.76624 3.664916 13.596675 3.79209 C 13.427109 3.919264 13.269501 4.058394 13.122761 4.211655 C 12.974935 4.363829 12.84124 4.526872 12.719501 4.699698 L 1.999934 19.9997 " stroke="#ffffff" stroke-width="2" stroke-opacity="1" stroke-miterlimit="4"/><path stroke-linecap="round" transform="matrix(3.59375, 0, 0, 3.59375, 30.285393, 144.337023)" fill="none" stroke-linejoin="round" d="M 19.999936 6.999699 L 21.999936 7.499699 L 19.999936 7.999699 " stroke="#ffffff" stroke-width="2" stroke-opacity="1" stroke-miterlimit="4"/><path stroke-linecap="round" transform="matrix(3.59375, 0, 0, 3.59375, 30.285393, 144.337023)" fill="none" stroke-linejoin="round" d="M 9.999935 17.9997 L 9.999935 20.9997 " stroke="#ffffff" stroke-width="2" stroke-opacity="1" stroke-miterlimit="4"/><path stroke-linecap="round" transform="matrix(3.59375, 0, 0, 3.59375, 30.285393, 144.337023)" fill="none" stroke-linejoin="round" d="M 13.999935 17.7497 L 13.999935 20.9997 " stroke="#ffffff" stroke-width="2" stroke-opacity="1" stroke-miterlimit="4"/><path stroke-linecap="round" transform="matrix(3.59375, 0, 0, 3.59375, 30.285393, 144.337023)" fill="none" stroke-linejoin="round" d="M 6.999935 17.9997 C 7.306457 17.9997 7.610804 17.976874 7.914065 17.930134 C 8.217326 17.883395 8.514065 17.81383 8.806457 17.721439 C 9.098848 17.629047 9.382544 17.514917 9.657544 17.379047 C 9.932544 17.243178 10.1945 17.087743 10.445587 16.911656 C 10.696674 16.735569 10.932544 16.542091 11.154283 16.329047 C 11.374935 16.117091 11.578196 15.889917 11.765153 15.646439 C 11.951022 15.40296 12.117327 15.146439 12.265153 14.87796 C 12.411892 14.608395 12.536892 14.330134 12.64124 14.042091 C 12.745588 13.754047 12.827109 13.459482 12.886892 13.158395 C 12.945588 12.858395 12.981457 12.554047 12.994501 12.248612 C 13.007544 11.94209 12.996675 11.636656 12.961892 11.332308 C 12.928196 11.02796 12.871675 10.726873 12.79124 10.431221 C 12.710805 10.135569 12.608631 9.847525 12.484718 9.56709 C 12.360805 9.287742 12.215153 9.018177 12.049935 8.760568 C 11.884718 8.50296 11.699935 8.258394 11.497761 8.029047 C 11.2945 7.798612 11.074935 7.586655 10.840153 7.389916 " stroke="#ffffff" stroke-width="2" stroke-opacity="1" stroke-miterlimit="4"/><g fill="#ffffff" fill-opacity="1"><g transform="translate(141.272587, 221.211879)"><g><path d="M 30.625 -50.46875 L 30.625 -42.578125 L 2.109375 -42.578125 L 2.109375 -50.46875 Z M 9.921875 0 L 9.921875 -56.3125 C 9.921875 -59.46875 10.609375 -62.085938 11.984375 -64.171875 C 13.367188 -66.265625 15.195312 -67.832031 17.46875 -68.875 C 19.75 -69.914062 22.226562 -70.4375 24.90625 -70.4375 C 26.875 -70.4375 28.554688 -70.273438 29.953125 -69.953125 C 31.359375 -69.640625 32.398438 -69.351562 33.078125 -69.09375 L 30.78125 -61.140625 C 30.320312 -61.273438 29.726562 -61.429688 29 -61.609375 C 28.28125 -61.796875 27.40625 -61.890625 26.375 -61.890625 C 23.988281 -61.890625 22.285156 -61.296875 21.265625 -60.109375 C 20.253906 -58.929688 19.75 -57.226562 19.75 -55 L 19.75 0 Z M 9.921875 0 "/></g></g></g><g fill="#ffffff" fill-opacity="1"><g transform="translate(175.409291, 221.211879)"><g><path d="M 27.859375 1.015625 C 23.128906 1.015625 19 -0.0664062 15.46875 -2.234375 C 11.945312 -4.398438 9.210938 -7.429688 7.265625 -11.328125 C 5.316406 -15.234375 4.34375 -19.789062 4.34375 -25 C 4.34375 -30.238281 5.316406 -34.816406 7.265625 -38.734375 C 9.210938 -42.648438 11.945312 -45.691406 15.46875 -47.859375 C 19 -50.035156 23.128906 -51.125 27.859375 -51.125 C 32.585938 -51.125 36.710938 -50.035156 40.234375 -47.859375 C 43.765625 -45.691406 46.503906 -42.648438 48.453125 -38.734375 C 50.410156 -34.816406 51.390625 -30.238281 51.390625 -25 C 51.390625 -19.789062 50.410156 -15.234375 48.453125 -11.328125 C 46.503906 -7.429688 43.765625 -4.398438 40.234375 -2.234375 C 36.710938 -0.0664062 32.585938 1.015625 27.859375 1.015625 Z M 27.890625 -7.234375 C 30.960938 -7.234375 33.503906 -8.039062 35.515625 -9.65625 C 37.523438 -11.28125 39.019531 -13.4375 40 -16.125 C 40.976562 -18.820312 41.46875 -21.789062 41.46875 -25.03125 C 41.46875 -28.25 40.976562 -31.210938 40 -33.921875 C 39.019531 -36.628906 37.523438 -38.800781 35.515625 -40.4375 C 33.503906 -42.082031 30.960938 -42.90625 27.890625 -42.90625 C 24.804688 -42.90625 22.25 -42.082031 20.21875 -40.4375 C 18.195312 -38.800781 16.695312 -36.628906 15.71875 -33.921875 C 14.75 -31.210938 14.265625 -28.25 14.265625 -25.03125 C 14.265625 -21.789062 14.75 -18.820312 15.71875 -16.125 C 16.695312 -13.4375 18.195312 -11.28125 20.21875 -9.65625 C 22.25 -8.039062 24.804688 -7.234375 27.890625 -7.234375 Z M 27.890625 -7.234375 "/></g></g></g><g fill="#ffffff" fill-opacity="1"><g transform="translate(231.131952, 221.211879)"><g><path d="M 6.609375 0 L 6.609375 -50.46875 L 16.09375 -50.46875 L 16.09375 -42.453125 L 16.625 -42.453125 C 17.539062 -45.160156 19.164062 -47.296875 21.5 -48.859375 C 23.832031 -50.429688 26.476562 -51.21875 29.4375 -51.21875 C 30.050781 -51.21875 30.78125 -51.195312 31.625 -51.15625 C 32.46875 -51.113281 33.128906 -51.054688 33.609375 -50.984375 L 33.609375 -41.59375 C 33.210938 -41.695312 32.507812 -41.820312 31.5 -41.96875 C 30.5 -42.113281 29.492188 -42.1875 28.484375 -42.1875 C 26.160156 -42.1875 24.09375 -41.695312 22.28125 -40.71875 C 20.476562 -39.75 19.050781 -38.40625 18 -36.6875 C 16.945312 -34.96875 16.421875 -33.007812 16.421875 -30.8125 L 16.421875 0 Z M 6.609375 0 "/></g></g></g><g fill="#ffffff" fill-opacity="1"><g transform="translate(266.681435, 221.211879)"><g><path d="M 38.5625 -20.921875 L 38.5625 -50.46875 L 48.421875 -50.46875 L 48.421875 0 L 38.765625 0 L 38.765625 -8.734375 L 38.234375 -8.734375 C 37.078125 -6.046875 35.222656 -3.804688 32.671875 -2.015625 C 30.117188 -0.234375 26.945312 0.65625 23.15625 0.65625 C 19.914062 0.65625 17.050781 -0.0546875 14.5625 -1.484375 C 12.082031 -2.921875 10.132812 -5.050781 8.71875 -7.875 C 7.3125 -10.707031 6.609375 -14.203125 6.609375 -18.359375 L 6.609375 -50.46875 L 16.421875 -50.46875 L 16.421875 -19.546875 C 16.421875 -16.109375 17.375 -13.367188 19.28125 -11.328125 C 21.1875 -9.296875 23.660156 -8.28125 26.703125 -8.28125 C 28.546875 -8.28125 30.378906 -8.738281 32.203125 -9.65625 C 34.035156 -10.570312 35.5625 -11.960938 36.78125 -13.828125 C 38 -15.691406 38.59375 -18.054688 38.5625 -20.921875 Z M 38.5625 -20.921875 "/></g></g></g><g fill="#ffffff" fill-opacity="1"><g transform="translate(321.68128, 221.211879)"><g><path d="M 6.609375 0 L 6.609375 -50.46875 L 16.421875 -50.46875 L 16.421875 0 Z M 11.5625 -58.25 C 9.851562 -58.25 8.390625 -58.820312 7.171875 -59.96875 C 5.960938 -61.125 5.359375 -62.5 5.359375 -64.09375 C 5.359375 -65.71875 5.960938 -67.101562 7.171875 -68.25 C 8.390625 -69.40625 9.851562 -69.984375 11.5625 -69.984375 C 13.269531 -69.984375 14.734375 -69.40625 15.953125 -68.25 C 17.171875 -67.101562 17.78125 -65.71875 17.78125 -64.09375 C 17.78125 -62.5 17.171875 -61.125 15.953125 -59.96875 C 14.734375 -58.820312 13.269531 -58.25 11.5625 -58.25 Z M 11.5625 -58.25 "/></g></g></g></svg>