<svg xmlns="http://www.w3.org/2000/svg" xmlns:xlink="http://www.w3.org/1999/xlink" zoomAndPan="magnify" preserveAspectRatio="xMidYMid meet" version="1.0" viewBox="36.47 150.77 302.99 71.45"><defs><g/></defs><path stroke-linecap="round" transform="matrix(3.59375, 0, 0, 3.59375, 30.285393, 144.336977)" fill="none" stroke-linejoin="round" d="M 15.999936 6.999711 L 16.009718 6.999711 " stroke="#000000" stroke-width="2" stroke-opacity="1" stroke-miterlimit="4"/><path stroke-linecap="round" transform="matrix(3.59375, 0, 0, 3.59375, 30.285393, 144.336977)" fill="none" stroke-linejoin="round" d="M 3.399935 17.999712 L 11.999935 17.999712 C 12.261892 17.999712 12.523848 17.986669 12.783631 17.961669 C 13.044501 17.935582 13.304283 17.897538 13.560805 17.846451 C 13.817327 17.795365 14.071675 17.731234 14.322762 17.655147 C 14.572762 17.57906 14.819501 17.491017 15.061892 17.391017 C 15.303196 17.291017 15.540153 17.17906 15.771675 17.055147 C 16.00211 16.932321 16.22711 16.797538 16.444501 16.651886 C 16.661892 16.506234 16.872762 16.350799 17.074936 16.184495 C 17.278197 16.01819 17.471675 15.842103 17.656458 15.657321 C 17.842327 15.471451 18.017327 15.277973 18.183632 15.074712 C 18.349936 14.872538 18.506458 14.662756 18.65211 14.444277 C 18.797762 14.226886 18.931458 14.001886 19.055371 13.771451 C 19.179284 13.539929 19.29124 13.30406 19.39124 13.061668 C 19.49124 12.819277 19.579284 12.572538 19.655371 12.322538 C 19.731458 12.071451 19.795588 11.81819 19.846675 11.560581 C 19.897762 11.30406 19.935806 11.045364 19.961893 10.784494 C 19.986893 10.523625 19.999936 10.261668 19.999936 9.999712 L 19.999936 6.999711 C 20.001023 6.788842 19.984719 6.577972 19.95211 6.369277 C 19.918414 6.159494 19.869501 5.954059 19.804284 5.752972 C 19.739066 5.551885 19.657545 5.35732 19.561892 5.168189 C 19.465153 4.980146 19.354284 4.800798 19.229284 4.629059 C 19.104284 4.458407 18.967327 4.298624 18.817327 4.149711 C 18.66624 4.000798 18.505371 3.863842 18.333632 3.741015 C 18.161892 3.617102 17.981458 3.508407 17.79124 3.412755 C 17.60211 3.318189 17.406458 3.238841 17.205371 3.175798 C 17.003197 3.111668 16.797762 3.063841 16.587979 3.033407 C 16.379284 3.001885 16.168414 2.987755 15.956457 2.989928 C 15.744501 2.992102 15.534718 3.010581 15.326023 3.04645 C 15.117327 3.08232 14.912979 3.134494 14.712979 3.201885 C 14.511892 3.270363 14.318414 3.354059 14.131457 3.452972 C 13.944501 3.551885 13.76624 3.664928 13.596675 3.792102 C 13.427109 3.919276 13.269501 4.058407 13.122761 4.211668 C 12.974935 4.363842 12.84124 4.526885 12.719501 4.699711 L 1.999934 19.999713 " stroke="#000000" stroke-width="2" stroke-opacity="1" stroke-miterlimit="4"/><path stroke-linecap="round" transform="matrix(3.59375, 0, 0, 3.59375, 30.285393, 144.336977)" fill="none" stroke-linejoin="round" d="M 19.999936 6.999711 L 21.999936 7.499711 L 19.999936 7.999711 " stroke="#000000" stroke-width="2" stroke-opacity="1" stroke-miterlimit="4"/><path stroke-linecap="round" transform="matrix(3.59375, 0, 0, 3.59375, 30.285393, 144.336977)" fill="none" stroke-linejoin="round" d="M 9.999935 17.999712 L 9.999935 20.999713 " stroke="#000000" stroke-width="2" stroke-opacity="1" stroke-miterlimit="4"/><path stroke-linecap="round" transform="matrix(3.59375, 0, 0, 3.59375, 30.285393, 144.336977)" fill="none" stroke-linejoin="round" d="M 13.999935 17.749712 L 13.999935 20.999713 " stroke="#000000" stroke-width="2" stroke-opacity="1" stroke-miterlimit="4"/><path stroke-linecap="round" transform="matrix(3.59375, 0, 0, 3.59375, 30.285393, 144.336977)" fill="none" stroke-linejoin="round" d="M 6.999935 17.999712 C 7.306457 17.999712 7.610804 17.976886 7.914065 17.930147 C 8.217326 17.883408 8.514065 17.813843 8.806457 17.721451 C 9.098848 17.62906 9.382544 17.51493 9.657544 17.37906 C 9.932544 17.243191 10.1945 17.087756 10.445587 16.911669 C 10.696674 16.735582 10.932544 16.542104 11.154283 16.32906 C 11.374935 16.117103 11.578196 15.88993 11.765153 15.646451 C 11.951022 15.402973 12.117327 15.146451 12.265153 14.877973 C 12.411892 14.608408 12.536892 14.330147 12.64124 14.042103 C 12.745588 13.75406 12.827109 13.459495 12.886892 13.158408 C 12.945588 12.858408 12.981457 12.55406 12.994501 12.248625 C 13.007544 11.942103 12.996675 11.636668 12.961892 11.33232 C 12.928196 11.027973 12.871675 10.726886 12.79124 10.431233 C 12.710805 10.135581 12.608631 9.847538 12.484718 9.567103 C 12.360805 9.287755 12.215153 9.01819 12.049935 8.760581 C 11.884718 8.501885 11.699935 8.258407 11.497761 8.029059 C 11.2945 7.798624 11.074935 7.586668 10.840153 7.389929 " stroke="#000000" stroke-width="2" stroke-opacity="1" stroke-miterlimit="4"/><g fill="#000000" fill-opacity="1"><g transform="translate(141.272587, 221.211908)"><g><path d="M 30.625 -50.46875 L 30.625 -42.578125 L 2.109375 -42.578125 L 2.109375 -50.46875 Z M 9.921875 0 L 9.921875 -56.3125 C 9.921875 -59.46875 10.609375 -62.085938 11.984375 -64.171875 C 13.367188 -66.265625 15.195312 -67.832031 17.46875 -68.875 C 19.75 -69.914062 22.226562 -70.4375 24.90625 -70.4375 C 26.875 -70.4375 28.554688 -70.273438 29.953125 -69.953125 C 31.359375 -69.640625 32.398438 -69.351562 33.078125 -69.09375 L 30.78125 -61.140625 C 30.320312 -61.273438 29.726562 -61.429688 29 -61.609375 C 28.28125 -61.796875 27.40625 -61.890625 26.375 -61.890625 C 23.988281 -61.890625 22.285156 -61.296875 21.265625 -60.109375 C 20.253906 -58.929688 19.75 -57.226562 19.75 -55 L 19.75 0 Z M 9.921875 0 "/></g></g></g><g fill="#000000" fill-opacity="1"><g transform="translate(175.409291, 221.211908)"><g><path d="M 27.859375 1.015625 C 23.128906 1.015625 19 -0.0664062 15.46875 -2.234375 C 11.945312 -4.398438 9.210938 -7.429688 7.265625 -11.328125 C 5.316406 -15.234375 4.34375 -19.789062 4.34375 -25 C 4.34375 -30.238281 5.316406 -34.816406 7.265625 -38.734375 C 9.210938 -42.648438 11.945312 -45.691406 15.46875 -47.859375 C 19 -50.035156 23.128906 -51.125 27.859375 -51.125 C 32.585938 -51.125 36.710938 -50.035156 40.234375 -47.859375 C 43.765625 -45.691406 46.503906 -42.648438 48.453125 -38.734375 C 50.410156 -34.816406 51.390625 -30.238281 51.390625 -25 C 51.390625 -19.789062 50.410156 -15.234375 48.453125 -11.328125 C 46.503906 -7.429688 43.765625 -4.398438 40.234375 -2.234375 C 36.710938 -0.0664062 32.585938 1.015625 27.859375 1.015625 Z M 27.890625 -7.234375 C 30.960938 -7.234375 33.503906 -8.039062 35.515625 -9.65625 C 37.523438 -11.28125 39.019531 -13.4375 40 -16.125 C 40.976562 -18.820312 41.46875 -21.789062 41.46875 -25.03125 C 41.46875 -28.25 40.976562 -31.210938 40 -33.921875 C 39.019531 -36.628906 37.523438 -38.800781 35.515625 -40.4375 C 33.503906 -42.082031 30.960938 -42.90625 27.890625 -42.90625 C 24.804688 -42.90625 22.25 -42.082031 20.21875 -40.4375 C 18.195312 -38.800781 16.695312 -36.628906 15.71875 -33.921875 C 14.75 -31.210938 14.265625 -28.25 14.265625 -25.03125 C 14.265625 -21.789062 14.75 -18.820312 15.71875 -16.125 C 16.695312 -13.4375 18.195312 -11.28125 20.21875 -9.65625 C 22.25 -8.039062 24.804688 -7.234375 27.890625 -7.234375 Z M 27.890625 -7.234375 "/></g></g></g><g fill="#000000" fill-opacity="1"><g transform="translate(231.131952, 221.211908)"><g><path d="M 6.609375 0 L 6.609375 -50.46875 L 16.09375 -50.46875 L 16.09375 -42.453125 L 16.625 -42.453125 C 17.539062 -45.160156 19.164062 -47.296875 21.5 -48.859375 C 23.832031 -50.429688 26.476562 -51.21875 29.4375 -51.21875 C 30.050781 -51.21875 30.78125 -51.195312 31.625 -51.15625 C 32.46875 -51.113281 33.128906 -51.054688 33.609375 -50.984375 L 33.609375 -41.59375 C 33.210938 -41.695312 32.507812 -41.820312 31.5 -41.96875 C 30.5 -42.113281 29.492188 -42.1875 28.484375 -42.1875 C 26.160156 -42.1875 24.09375 -41.695312 22.28125 -40.71875 C 20.476562 -39.75 19.050781 -38.40625 18 -36.6875 C 16.945312 -34.96875 16.421875 -33.007812 16.421875 -30.8125 L 16.421875 0 Z M 6.609375 0 "/></g></g></g><g fill="#000000" fill-opacity="1"><g transform="translate(266.681435, 221.211908)"><g><path d="M 38.5625 -20.921875 L 38.5625 -50.46875 L 48.421875 -50.46875 L 48.421875 0 L 38.765625 0 L 38.765625 -8.734375 L 38.234375 -8.734375 C 37.078125 -6.046875 35.222656 -3.804688 32.671875 -2.015625 C 30.117188 -0.234375 26.945312 0.65625 23.15625 0.65625 C 19.914062 0.65625 17.050781 -0.0546875 14.5625 -1.484375 C 12.082031 -2.921875 10.132812 -5.050781 8.71875 -7.875 C 7.3125 -10.707031 6.609375 -14.203125 6.609375 -18.359375 L 6.609375 -50.46875 L 16.421875 -50.46875 L 16.421875 -19.546875 C 16.421875 -16.109375 17.375 -13.367188 19.28125 -11.328125 C 21.1875 -9.296875 23.660156 -8.28125 26.703125 -8.28125 C 28.546875 -8.28125 30.378906 -8.738281 32.203125 -9.65625 C 34.035156 -10.570312 35.5625 -11.960938 36.78125 -13.828125 C 38 -15.691406 38.59375 -18.054688 38.5625 -20.921875 Z M 38.5625 -20.921875 "/></g></g></g><g fill="#000000" fill-opacity="1"><g transform="translate(321.68128, 221.211908)"><g><path d="M 6.609375 0 L 6.609375 -50.46875 L 16.421875 -50.46875 L 16.421875 0 Z M 11.5625 -58.25 C 9.851562 -58.25 8.390625 -58.820312 7.171875 -59.96875 C 5.960938 -61.125 5.359375 -62.5 5.359375 -64.09375 C 5.359375 -65.71875 5.960938 -67.101562 7.171875 -68.25 C 8.390625 -69.40625 9.851562 -69.984375 11.5625 -69.984375 C 13.269531 -69.984375 14.734375 -69.40625 15.953125 -68.25 C 17.171875 -67.101562 17.78125 -65.71875 17.78125 -64.09375 C 17.78125 -62.5 17.171875 -61.125 15.953125 -59.96875 C 14.734375 -58.820312 13.269531 -58.25 11.5625 -58.25 Z M 11.5625 -58.25 "/></g></g></g></svg>